/vscmnt/brussel_pixiu_data/_data_brussel/112/vsc11236/PredSimResults/SUBJ09mtu3D/weighted-expIG/worker_03.mot
version=1
nRows=4
nColumns=50
inDegrees=yes
endheader
                time	         pelvis_tilt	         pelvis_list	     pelvis_rotation	           pelvis_tx	           pelvis_ty	           pelvis_tz	       hip_flexion_r	     hip_adduction_r	      hip_rotation_r	        knee_angle_r	       ankle_angle_r	         mtp_angle_r	       hip_flexion_l	     hip_adduction_l	      hip_rotation_l	        knee_angle_l	       ankle_angle_l	         mtp_angle_l	    lumbar_extension	      lumbar_bending	     lumbar_rotation	 ercspn_r/activation	 intobl_r/activation	 extobl_r/activation	    abd_r/activation	    add_r/activation	hamstrings_r/activation	bifemsh_r/activation	glut_max_r/activation	iliopsoas_r/activation	rect_fem_r/activation	  vasti_r/activation	gastroc_r/activation	 soleus_r/activation	tib_ant_r/activation	 ercspn_l/activation	 intobl_l/activation	 extobl_l/activation	    abd_l/activation	    add_l/activation	hamstrings_l/activation	bifemsh_l/activation	glut_max_l/activation	iliopsoas_l/activation	rect_fem_l/activation	  vasti_l/activation	gastroc_l/activation	 soleus_l/activation	tib_ant_l/activation	
          0.00000000	         -7.65504113	         -4.56592856	          7.68423782	          0.00000000	          0.98176701	         -0.01311608	         31.20198854	          1.29439905	         -5.27327404	         -1.80992232	          6.65967004	          0.21391311	        -10.62138343	         -4.76431452	          6.07328090	         -5.75225929	         11.29844855	         26.14193354	         -0.57372878	          2.82287458	         -3.65601567	          0.09427199	          0.13052325	          0.03432670	          0.01214047	          0.06014036	          0.14514561	          0.21421112	          0.00999999	          0.13160389	          0.00999999	          0.00999999	          0.00999999	          0.00999999	          0.26115682	          0.03562779	          0.00999999	          0.00999999	          0.06072434	          0.01000000	          0.02354197	          0.14460371	          0.05729602	          0.49739410	          0.00999999	          0.00999999	          0.35346069	          0.29064486	          0.01708369	
          0.01284292	         -7.75388842	         -4.50382224	          7.69829328	          0.01789959	          0.97953466	         -0.01285807	         31.43968934	          1.39081471	         -5.07845225	         -3.68295176	          6.25365102	          0.21940381	        -10.89358451	         -4.72217078	          5.68030694	         -7.02217482	         10.70878711	         28.11276547	         -0.28976679	          3.14432195	         -3.77021390	          0.07765091	          0.10843645	          0.02827457	          0.00999999	          0.10857064	          0.12551271	          0.17644361	          0.06491055	          0.10840084	          0.00999999	          0.00999999	          0.02319942	          0.01473913	          0.27194304	          0.07817053	          0.00999999	          0.00999999	          0.05001805	          0.03421783	          0.01939129	          0.11910866	          0.04719417	          0.50626933	          0.00999999	          0.00999999	          0.32678380	          0.27427194	          0.01407167	
          0.02568584	         -7.83176607	         -4.43735210	          7.66436465	          0.03626659	          0.97755998	         -0.01252859	         31.48544231	          1.47452371	         -4.86111516	         -5.48317055	          5.79392036	          0.20107479	        -11.05147408	         -4.66491585	          5.26398333	         -8.57795347	          9.96139326	         30.15624366	          0.02101152	          3.47069988	         -3.85462597	          0.06396030	          0.08931804	          0.02328949	          0.05867689	          0.09213132	          0.10983127	          0.14533487	          0.11164383	          0.08928871	          0.00999999	          0.00999999	          0.01910914	          0.01214048	          0.32237367	          0.07438666	          0.00999999	          0.00999999	          0.04119938	          0.02818489	          0.02161123	          0.09810864	          0.03887338	          0.49271659	          0.00999999	          0.01789402	          0.29806942	          0.25424854	          0.01159070	
          0.03852876	         -7.89183001	         -4.36003049	          7.58273518	          0.05478925	          0.97610095	         -0.01210193	         31.35743762	          1.56571289	         -4.67908692	         -6.98107525	          5.17207629	          0.17900999	        -11.00042628	         -4.58121532	          4.83330275	        -10.53319062	          8.99427131	         32.26608308	          0.32514424	          3.79155739	         -3.90529543	          0.07340455	          0.07357040	          0.01918332	          0.11853048	          0.12099632	          0.09108658	          0.11971091	          0.16375054	          0.07354623	          0.00999999	          0.00999999	          0.01574001	          0.00999999	          0.35674701	          0.10726483	          0.00999999	          0.00999999	          0.03393552	          0.03714559	          0.02036767	          0.08081113	          0.03201962	          0.47627694	          0.01000000	          0.01473913	          0.24551686	          0.21097527	          0.00999999	
